<?xml version="1.0" encoding="utf-8" ?>
    <svg version="1.1"
        baseProfile="full"
        xmlns="http://www.w3.org/2000/svg"
        xmlns:xlink="http://www.w3.org/1999/xlink" preserveAspectRatio="xMidYMid meet" height="1200" width="1000" viewBox="0,0,1000,1200 "><defs></defs><g ><g mask="url(#mask3)"><g><g fill="#F0F0F0"><rect x="0" y="0" width="1000" height="1200" ><title>Field</title></rect></g><g><title>pale</title><g fill="#7E0001"><path fill-rule="evenodd" d="M350,-20h300 v1248   h-300   v-1248  z" /></g></g><g><title>fess</title><g fill="#7E0001"><path fill-rule="evenodd" d="M-100,350h1200 v300   h-1200   v-300  z" /></g></g><g fill="#EFD807"><g transform=" translate(328.07320964225,260) scale(1.8430519739291, 1.8430519739291) " >
<title>A arrows</title><g ><g ><g ><path fill-rule="evenodd" stroke="#696969" stroke-width="1.29999995" d="M20.96,31.49 157.9,233.6   l-4.048,2.752 -137.5,-201.7   c5.032,-2.956 -0.3163,0.4102 4.608,-3.128   z " />
<path fill-rule="evenodd" stroke="#696969" stroke-width="1.29999995" d="m95.86,10.49 -0.279,244.1 -4.895,0.002156 -0.3948,-244.1   c5.824,0.3817 -0.4921,0.1617 5.569,0   z " />
<path fill-rule="evenodd" stroke="#696969" stroke-width="1.30000007" d="m55.96,15.69 71.81,233.3 -4.676,1.448 -72.48,-233.1   c5.677,-1.355 -0.4224,0.2998 5.321,-1.644   z " />
<path fill-rule="evenodd" stroke="#696969" stroke-width="1.29999995" d="M165.7,31.09 28.66,233.1 32.76,235.9 170.3,34.19   c-5.032,-2.956 0.3163,0.4102 -4.608,-3.128   z " />
<path d="m130.6,15.69 -71.81,233.3 4.677,1.448 72.48,-233.1   c-5.677,-1.355 0.4224,0.2998 -5.321,-1.644   z " fill-rule="evenodd" stroke="#696969" stroke-width="1.46103263" />
<g ><path d="m16.96,35.69 -15.67,-1.833 21.17,30.06 15.34,2.97 -20.85,-31.2   z " fill-rule="evenodd" stroke="#696969" stroke-width="1.30000007" />
<path d="m21.66,32.89 4.071,-15.24 20.13,30.76 -2.897,15.35 -21.31,-30.88   z " fill-rule="evenodd" stroke="#696969" stroke-width="1.30000007" />
<path d="m90.26,11.69 -11.93,-10.32 0.629,36.76 11.02,11.08 0.2747,-37.52   z " fill-rule="evenodd" stroke="#696969" stroke-width="1.30000007" />
<path d="m95.66,11.99 11.93,-10.32 -0.629,36.76 -11.02,11.08 -0.2747,-37.52   z " fill-rule="evenodd" stroke="#696969" stroke-width="1.30000007" />
<path d="m50.96,18.59 -14.44,-6.334 11.46,34.94 13.81,7.329 -10.82,-35.93   z " fill-rule="evenodd" stroke="#696969" stroke-width="1.30000007" />
<path d="m56.16,17.29 8.349,-13.38 10.25,35.31 -7.262,13.84 -11.34,-35.76   z " fill-rule="evenodd" stroke="#696969" stroke-width="1.30000007" />
<path d="m169.6,35.19 15.67,-1.833 -21.17,30.06 -15.34,2.97 20.85,-31.2   z " fill-rule="evenodd" stroke="#696969" stroke-width="1.30000007" />
<path d="m164.9,32.39 -4.071,-15.24 -20.13,30.76 2.897,15.35 21.31,-30.88   z " fill-rule="evenodd" stroke="#696969" stroke-width="1.30000007" />
<path d="M170.3,37.89 180.7,36.29 163.4,61.29 152.2,63.39 170.5,37.89   z " opacity="0.5" fill="#b3b3b3" fill-rule="evenodd" stroke="none" />
<path d="m15.76,38.39 -10.45,-1.573 17.25,24.97 11.23,2.119 -18.23,-25.51   z " opacity="0.5" fill="#b3b3b3" fill-rule="evenodd" stroke="none" />
<path d="m49.66,21.09 -9.498,-4.625 8.998,28.98 10.08,5.378 -9.768,-29.79   z " opacity="0.5" fill="#b3b3b3" fill-rule="evenodd" stroke="none" />
<path fill-rule="evenodd" stroke="#696969" stroke-width="1.30000007" d="m135.6,18.49 14.44,-6.334 -11.46,34.94 -13.81,7.329 10.82,-35.93   z " />
<path fill-rule="evenodd" stroke="#696969" stroke-width="1.30000007" d="m130.3,17.09 -8.349,-13.38 -10.25,35.31 7.262,13.84 11.34,-35.76   z " />
<path opacity="0.5" fill="#b3b3b3" fill-rule="evenodd" stroke="none" d="m136.9,21.09 9.498,-4.625 -8.998,28.98 -10.09,5.378 9.768,-29.79   z " />
<path opacity="0.5" fill="#b3b3b3" fill-rule="evenodd" stroke="none" d="m162.2,32.49 -2.805,-10.19 -15.81,25.9 2.622,11.13 15.92,-27.02   z " />
<path opacity="0.5" fill="#b3b3b3" fill-rule="evenodd" stroke="none" d="m24.46,32.89 2.572,-10.25 16.39,25.53 -2.368,11.18 -16.52,-26.65   z " />
<path opacity="0.5" fill="#b3b3b3" fill-rule="evenodd" stroke="none" d="m98.36,13.39 7.904,-7.019 -0.8458,30.33 -8.255,7.897 1.366,-31.32   z " />
<path opacity="0.5" fill="#b3b3b3" fill-rule="evenodd" stroke="none" d="m87.66,12.49 -7.904,-7.019 0.8458,30.33 8.255,7.897 -1.366,-31.32   z " />
<path opacity="0.5" fill="#b3b3b3" fill-rule="evenodd" stroke="none" d="m127.8,17.89 -5.083,-9.261 -9.403,28.85 5.12,10.21 9.248,-29.96   z " />
<path opacity="0.5" fill="#b3b3b3" fill-rule="evenodd" stroke="none" d="m58.46,19.09 5.083,-9.261 9.403,28.85 -5.12,10.21 -9.248,-29.96   z " />
</g>
<g ><g stroke="#696969" stroke-width="2.76608849" ><path d="m176.9,266.8   c-15.75,-48.96 0.001073,-0.4421 -15.79,-49.02 -3.255,15.1 0.03131,-0.172 -3.211,15.18 -4.307,2.761 -0.003214,0.0007275 -4.306,2.774 -15.24,-2.376 0.1123,0.1467 -15.48,-2.513 38.67,33.53 -0.176,-0.06904 38.79,33.59   z " fill-rule="evenodd" stroke="#696969" stroke-width="2.76608849" />
</g>
<g stroke="#696969" stroke-width="2.76608849" ><path d="m92.66,292.8   c14.48,-49.35 0.2492,-0.3651 14.48,-49.42 -11.18,10.66 0.1226,-0.1248 -11.18,10.75 -5.114,-0.1363 -0.003068,-0.001204 -5.12,-0.1248 -11.27,-10.52 0.01052,0.1844 -11.39,-10.77 13.15,49.46 -0.1068,-0.156 13.22,49.57   z " fill-rule="evenodd" stroke="#696969" stroke-width="2.76608849" />
</g>
<g stroke="#696969" stroke-width="2.76608849" ><path d="m136.3,286.3   c-0.7404,-51.42 0.1303,-0.4224 -0.7654,-51.5 -7.532,13.48 0.08025,-0.1553 -7.512,13.57 -4.927,1.381 -0.003286,-0.0002443 -4.929,1.392 -13.88,-6.728 0.06453,0.1731 -14.06,-6.931 27.18,43.38 -0.1481,-0.1175 27.26,43.46   z " fill-rule="evenodd" stroke="#696969" stroke-width="2.76608849" />
</g>
<g stroke="#696969" stroke-width="2.76608849" ><path d="m9.663,266.3   c15.75,-48.96 -0.001073,-0.4421 15.79,-49.02 3.255,15.1 -0.03131,-0.172 3.211,15.18 4.307,2.761 0.003214,0.0007275 4.306,2.774 15.24,-2.376 -0.1123,0.1467 15.48,-2.513 -38.67,33.53 0.176,-0.06904 -38.79,33.59   z " fill-rule="evenodd" stroke="#696969" stroke-width="2.76608849" />
</g>
<g opacity="0.50000000000000000" fill="none" stroke="none" ><path d="m14.06,259.9   c11.17,-34.73 -0.0007613,-0.3136 11.2,-34.77 2.309,10.71 -0.02222,-0.122 2.279,10.77 3.055,1.958 0.002279,0.0005159 3.055,1.967 10.81,-1.685 -0.07971,0.1041 10.98,-1.783 -27.43,23.79 0.1248,-0.04897 -27.51,23.83   z " fill="#cccccc" fill-rule="evenodd" stroke="none" opacity="0.50000000000000000" />
</g>
<g stroke="#696969" stroke-width="2.76608849" ><path fill-rule="evenodd" stroke="#696969" stroke-width="2.76608849" d="m50.16,286.2   c0.7404,-51.42 -0.1303,-0.4224 0.7654,-51.5 7.532,13.48 -0.08025,-0.1553 7.512,13.57 4.927,1.381 0.003286,-0.0002443 4.929,1.392 13.88,-6.728 -0.06453,0.1731 14.06,-6.931 -27.18,43.38 0.1481,-0.1175 -27.26,43.46   z " />
</g>
<g opacity="0.50000000000000000" stroke="none" ><path fill-rule="evenodd" stroke="none" opacity="0.50000000000000000" fill="#b3b3b3" d="m52.16,279.1   c1.111,-36.46 -0.08762,-0.3011 1.13,-36.51 5.186,9.653 -0.05514,-0.1111 5.172,9.714 3.478,1.035 0.002333,-0.0001358 3.48,1.044 9.917,-4.613 -0.04775,0.1221 10.05,-4.754 -19.77,30.45 0.1063,-0.0816 -19.83,30.51   z " />
</g>
<g opacity="0.50000000000000000" stroke="none" ><path fill-rule="evenodd" stroke="none" opacity="0.50000000000000000" fill="#b3b3b3" d="m92.96,285.2   c-10.16,-35.03 -0.176,-0.2595 -10.16,-35.09 7.904,7.586 -0.08667,-0.08876 7.91,7.654 3.628,-0.08518 0.002179,-0.0008471 3.632,-0.07708 8.018,-7.437 -0.007877,0.1308 8.106,-7.62 -9.437,35.05 0.07606,-0.1104 -9.484,35.13   z " />
</g>
<g opacity="0.50000000000000000" stroke="none" ><path fill-rule="evenodd" stroke="none" opacity="0.50000000000000000" fill="#b3b3b3" d="m134.3,279.3   c-1.111,-36.46 0.08762,-0.3011 -1.13,-36.51 -5.186,9.653 0.05514,-0.1111 -5.172,9.714 -3.478,1.035 -0.002333,-0.0001358 -3.48,1.044 -9.917,-4.613 0.04775,0.1221 -10.05,-4.754 19.77,30.45 -0.1063,-0.0816 19.83,30.51   z " />
</g>
<path opacity="0.25" fill="#808080" fill-rule="evenodd" stroke="none" d="m173.4,261.4   c-11.17,-34.73 0,-0.3136 -11.2,-34.78 -2.309,10.71 0.02224,-0.122 -2.278,10.77 -3.055,1.958 -0.00196,0 -3.054,1.967 -10.81,-1.685 0.07964,0.104 -10.98,-1.783 27.43,23.79 -0.1248,-0.049 27.51,23.82   z " />
</g>
</g>
</g>
</g>
</g>
</g></g></g><defs><mask id="mask3" >
<path fill="#FFFFFF" d="M 163.98366,847.96689 C 44.928328,668.61454 25.924791,556.08442 18.182746,506.53533 1.1502469,452.34101 4.0406102,1.031383 4.0406102,1.031383 H 501.07544 998.11027 c 0,0 2.89033,451.309627 -14.14213,505.503947 -7.74205,49.54909 -26.74558,162.07921 -145.80091,341.43156 C 739.9148,996.66231 615.29598,1112.9122 501.07544,1199.5 386.85491,1112.9122 262.23609,996.66231 163.98366,847.96689 Z" />
</mask>
</defs></g></svg>
